<?xml version="1.0" encoding="UTF-8"?>
<svg id="Capa_1" data-name="Capa 1" xmlns="http://www.w3.org/2000/svg" viewBox="0 0 570.12 323.94">
  <defs>
    <style>
      .cls-1 {
        letter-spacing: .04em;
      }

      .cls-2 {
        letter-spacing: 0em;
      }

      .cls-3 {
        stroke-width: 0px;
      }

      .cls-3, .cls-4 {
        fill: #213854;
      }

      .cls-4 {
        font-family: Franie-Bold, Franie;
        font-size: 93.02px;
        font-variation-settings: 'wght' 78, 'ital' 0;
        font-weight: 700;
      }
    </style>
  </defs>
  <text class="cls-4" transform="translate(71.67 143.42)"><tspan x="0" y="0">Clean</tspan></text>
  <text class="cls-4" transform="translate(75.39 231.89)"><tspan class="cls-2" x="0" y="0">W</tspan><tspan class="cls-1" x="113.48" y="0">aters</tspan></text>
  <path class="cls-3" d="m418.99,148.7c-2.46,0-3.58-1.12-3.58-3.59-.01-3.63-.02-7.26,0-10.89.01-2.23,1.07-3.36,3.27-3.5,1-.06,2.01-.03,3.01-.07,7.5-.29,14.77-1.55,21.59-4.86,9.48-4.6,14.69-13.33,13.67-23.17-.44-4.23-1.91-8.07-5-11.12-2.96-2.92-6.58-3.27-10.21-1.23-3.24,1.82-5.22,4.58-5.59,8.17-.42,4.11-.36,8.27-.53,12.4-.07,1.71.01,3.46-.31,5.12-.48,2.45-2.68,3.64-5.01,2.74-1.3-.5-2.62-1.24-3.62-2.19-5.45-5.19-8.5-11.54-8.72-19.12-.26-8.98,3.03-16.41,10.09-22.02,5.5-4.37,11.93-6.53,18.85-7.15,15.28-1.36,28.66,3.33,40.08,13.37,12.78,11.24,18.55,25.97,19.77,42.6.5,6.8.23,13.65.33,20.47.04,3.05-.93,4.04-3.99,4.04-13.94,0-27.89,0-41.83,0-14.09,0-28.18,0-42.26,0Zm10.82-48.22c.26-2.66.88-5.4,1.93-7.85,2.78-6.47,9.2-10.05,16.84-9.73,7.68.32,14.88,2.34,21.3,6.63,10.74,7.18,17.07,17.21,18.89,30.02,1.09,7.66-.08,15-3.17,22.07-.13.29-.2.61-.33,1,5.28,0,10.46,0,15.68,0,.04-.25.09-.43.08-.61-.17-6.87.11-13.78-.63-20.59-1.61-14.93-7.59-27.81-19.7-37.25-9.03-7.04-19.34-10.6-30.85-10.19-6.41.23-12.47,1.82-17.67,5.76-8.75,6.62-10.89,18.29-5.2,27.76.65,1.08,1.44,2.08,2.16,3.12.19-.05.38-.1.56-.16,0-3.33-.25-6.69.08-9.99Zm32.72,9.98c-1.74,8.72-6.85,15.06-14.4,19.51-6.79,4.01-14.27,5.72-22.03,6.41-1.47.13-2.95.24-4.42.37-.04,0-.07.05-.19.15,0,1.82,0,3.7,0,5.8h1.51c7.54,0,15.08-.04,22.62.01,10.19.07,20.27-6.22,23.79-17.06,3.13-9.62,1.91-18.74-4.14-27-1.11-1.51-2.54-2.8-3.82-4.19-.11.09-.23.18-.34.27,2.04,5.11,2.47,10.38,1.41,15.73Zm15.02,32.21c.38,0,.92-.29,1.1-.61,7.42-13.06,5.62-29.53-4.5-40.95-.03-.03-.08-.05-.4-.21,3.25,7.39,4.1,14.86,2.46,22.55-1.65,7.72-5.52,14.11-12.1,19.25,4.76,0,9.1.02,13.44-.03Z"/>
</svg>