<?xml version="1.0" encoding="utf-8"?>
<!-- Generator: Adobe Illustrator 28.0.0, SVG Export Plug-In . SVG Version: 6.00 Build 0)  -->
<svg version="1.1" id="Capa_1" xmlns="http://www.w3.org/2000/svg" xmlns:xlink="http://www.w3.org/1999/xlink" x="0px" y="0px"
	 viewBox="0 0 1929.68 1096.7" style="enable-background:new 0 0 1929.68 1096.7;" xml:space="preserve">
<style type="text/css">
	.st0{fill:#FFFFFF;}
	.st1{fill:#076CAF;}
	.st2{fill:#142F40;}
	.st3{fill:#115272;}
	.st4{fill:#213854;}
	.st5{fill:#478FD1;}
	.st6{clip-path:url(#SVGID_00000041995285297718854570000012571206157943423369_);}
	.st7{fill:#FFFAEE;}
	.st8{fill:#1D3E60;}
	.st9{clip-path:url(#SVGID_00000148657094701655586350000014574524673838468490_);}
	.st10{clip-path:url(#SVGID_00000003079347287160319290000003401220407951568274_);}
	.st11{fill:#254460;}
	.st12{clip-path:url(#SVGID_00000003783140162249229410000013372321160045625511_);}
	.st13{fill:#41A3E5;}
	.st14{clip-path:url(#SVGID_00000026877012159903147310000017797049406479838347_);fill:#9DCFEA;}
	.st15{clip-path:url(#SVGID_00000026877012159903147310000017797049406479838347_);fill:#4EB4E8;}
	.st16{clip-path:url(#SVGID_00000026877012159903147310000017797049406479838347_);fill:#0086D2;}
	.st17{clip-path:url(#SVGID_00000026877012159903147310000017797049406479838347_);fill:#0061A7;}
	.st18{fill:#EDF2F4;}
	.st19{fill:#58A3DB;}
	.st20{fill:none;stroke:#58A3DB;stroke-width:2;stroke-linecap:round;stroke-linejoin:round;stroke-miterlimit:10;}
	.st21{fill:none;stroke:#213854;stroke-miterlimit:10;}
	.st22{fill:#0083D1;}
	.st23{fill:#0061A7;}
	.st24{fill:url(#SVGID_00000062893797868463093540000010859141852838738049_);}
	.st25{filter:url(#Adobe_OpacityMaskFilter);}
	.st26{opacity:0.5;mask:url(#SVGID_00000057861990443531599210000012174842032926253472_);}
	.st27{fill:#77848A;}
	.st28{fill:none;stroke:#FFFFFF;stroke-width:1.5;stroke-linecap:round;stroke-miterlimit:10;}
	.st29{fill:#FBFEFF;}
	.st30{opacity:0.66;}
	.st31{fill:#DCDCDC;}
	.st32{filter:url(#Adobe_OpacityMaskFilter_00000065039005516995152570000007807934152846496683_);}
	.st33{opacity:0.5;mask:url(#SVGID_00000001630465661211780790000013621819300896477607_);}
	.st34{fill:url(#SVGID_00000062187484216390878750000002195486635544629421_);}
	.st35{filter:url(#Adobe_OpacityMaskFilter_00000004535623813430739350000001033681216353264538_);}
	.st36{opacity:0.5;mask:url(#SVGID_00000070091391523741779990000009181152495607611822_);}
	.st37{fill:url(#SVGID_00000016791876784627822060000016582499575257042571_);}
	.st38{filter:url(#Adobe_OpacityMaskFilter_00000047776563913745693510000015573156823309323429_);}
	.st39{opacity:0.5;mask:url(#SVGID_00000098201749571494000270000009405929342533166250_);}
	.st40{fill:url(#SVGID_00000098922420115918819110000009877546655777335171_);}
	.st41{filter:url(#Adobe_OpacityMaskFilter_00000088831819361761268100000004611898298829942692_);}
	.st42{opacity:0.5;mask:url(#SVGID_00000091015861364802977370000014193074898594092723_);}
	.st43{fill:url(#SVGID_00000094606879071028542510000000035127674284594619_);}
	.st44{filter:url(#Adobe_OpacityMaskFilter_00000157270366728842708780000004748532119851021185_);}
	.st45{opacity:0.5;mask:url(#SVGID_00000105410378883958026020000009805536809475241859_);}
	.st46{clip-path:url(#SVGID_00000145773302911708030080000016055663255722642566_);}
	.st47{fill:url(#SVGID_00000052805348440206720010000012775870853535805592_);}
	.st48{fill:url(#SVGID_00000077315048020757453020000008119279481480424620_);}
	.st49{fill:url(#SVGID_00000111873849442744421220000013292805230504256394_);}
	.st50{fill:#B6B6B6;}
	.st51{fill:#D7D7D7;}
	.st52{fill:url(#SVGID_00000021090815441128510580000001760882855029171365_);}
	.st53{fill:url(#SVGID_00000098932704588816866230000005947861534829277600_);}
	.st54{fill:url(#SVGID_00000060028405252897440830000018375035150844625546_);}
	.st55{fill:url(#SVGID_00000009567956052572648740000013116310064884474778_);}
	.st56{fill:url(#SVGID_00000118375630874111702980000012497876310279626116_);}
	.st57{fill:url(#SVGID_00000011742311497580379560000005773600751933394603_);}
	.st58{clip-path:url(#SVGID_00000178884887185870985650000000418872403550669189_);}
	.st59{fill:url(#SVGID_00000021092925296031110850000017244656137191253945_);}
	.st60{fill:url(#SVGID_00000051385901684794862550000011696891534358362032_);}
	.st61{fill:none;stroke:#EFEFEF;stroke-width:3.2771;stroke-linecap:round;stroke-linejoin:round;stroke-miterlimit:10;}
	.st62{fill:none;stroke:#EFEFEF;stroke-width:3.2771;stroke-miterlimit:10;}
	.st63{fill:#EFEFEF;}
	.st64{opacity:0.49;fill:#076CAF;}
	.st65{fill:#54A0EA;}
	.st66{fill:none;stroke:#58A3DB;stroke-width:8;stroke-linecap:round;stroke-miterlimit:10;}
</style>
<g>
	<defs>
		<rect id="SVGID_00000011749106996745723730000002790345692683438997_" x="0" y="-6.02" width="1929.68" height="1102.72"/>
	</defs>
	<clipPath id="SVGID_00000097487958812987998830000012725737862522251907_">
		<use xlink:href="#SVGID_00000011749106996745723730000002790345692683438997_"  style="overflow:visible;"/>
	</clipPath>
	<path style="clip-path:url(#SVGID_00000097487958812987998830000012725737862522251907_);fill:#9DCFEA;" d="M-106.16,9.95
		c26.74,105.64,93.73,200.28,183.93,259.82c90.2,59.54,202.71,83.4,308.91,65.5c111.28-18.75,210.23-80,310.37-132.63
		c100.14-52.62,210.9-98.64,322.67-83.12c89.55,12.44,168.94,62.96,254.33,92.99c142.18,49.99,303.69,40.78,439.43-25.06
		c135.74-65.84,244.09-187.52,294.8-331.08v1259.89H-131.63L-106.16,9.95z"/>
	<path style="clip-path:url(#SVGID_00000097487958812987998830000012725737862522251907_);fill:#4EB4E8;" d="M2268.94-47.52
		c-13.63,122.18-134.27,207.89-254.25,226.45c-119.98,18.56-241.14-13.03-360.56-35.01c-119.42-21.98-248.45-33.17-356.96,21.91
		c-94.33,47.88-168.65,143.53-273.6,154.44c-152.01,15.8-265.62-152.9-416.99-174.15c-90.31-12.68-178.9,29.44-257.32,76.55
		c-78.42,47.12-156.01,101.57-245.8,117.59s-197.08-20.48-228.35-107.23v987.4h2454.7L2268.94-47.52z"/>
	<path style="clip-path:url(#SVGID_00000097487958812987998830000012725737862522251907_);fill:#0086D2;" d="M-43.18,432.17
		c30.26-92.3,101.71-169.83,190.53-206.75s193.43-32.57,278.96,11.59c85.87,44.33,148.98,123.9,230.95,175.25
		c116.36,72.89,269.27,81.82,393.12,22.97c69.05-32.81,130.51-85.42,205.5-99.48c116.94-21.93,227.06,54.55,341.33,87.91
		c212.71,62.09,461.33-44.83,565-242.98v970.33H-91.13L-43.18,432.17z"/>
	<path style="clip-path:url(#SVGID_00000097487958812987998830000012725737862522251907_);fill:#0061A7;" d="M2277.88,358.92
		c-84.94,81.38-210.25,106.88-326.7,96.39c-116.45-10.49-227.45-52.66-338.04-91.06s-224.98-73.78-341.82-69.88
		c-246.71,8.24-468.79,189.51-715.2,174.59c-106.56-6.45-207.59-49.62-313.1-66.09c-105.51-16.47-228.43,1.76-291.12,89.3v731.43
		h2334.29L2277.88,358.92z"/>
</g>
</svg>
