<?xml version="1.0" encoding="UTF-8"?>
<svg id="Capa_1" data-name="Capa 1" xmlns="http://www.w3.org/2000/svg" viewBox="0 0 794.4 634.03">
  <defs>
    <style>
      .cls-1 {
        fill: #58a3db;
        stroke-width: 0px;
      }
    </style>
  </defs>
  <path class="cls-1" d="m478.49,205.87c2.63-4.85,6.04-8.32,14.13-7.38-3.77,4.64-6.6,8.13-9.43,11.62,5.37,9.74,5.24,9.61-3.59,18.69-2.03,2.08-2.75,5.4-4.2,8.09-15.88,29.38-30.59,59.58-54.1,83.96-5.86,6.07-9.15,11.95-9.77,20.61-1.05,14.68-8.67,26.94-18,38.03-6.8,8.09-6.88,8.02-8.64,19.26,7.49.43,14.99.73,22.47,1.3,13.62,1.04,25.1,6.98,35.47,15.57,8.98,7.44,12.33,16.84,9.56,28-6,24.23-18.36,45.08-34.63,64.52,8.29,9.08,20.55,11.12,32.53,15.58,0-10.67.02-20.75-.02-30.82,0-1.55-.07-3.16-.47-4.65-3.25-12.27,4.44-19.2,13.02-24.95,3.36-2.25,8.42-1.96,13.66-3.02,0-2.06.03-4.41,0-6.76-.47-27.41-.78-54.83-1.56-82.24-.14-4.76,1.41-7.39,5.23-9.59,5.98-3.44,11.64-7.47,17.74-10.64,4.88-2.53,7.62-5.9,9.17-11.27,7.27-25.16,14.95-50.19,22.6-75.66-3.32-.46-6.5-.9-10.11-1.4-.11-2.51-.3-4.67-.3-6.82,0-35,.41-70.01-.26-105-.14-7.14,2.37-10.39,7.41-14.23,10.16-7.73,20.85-12.16,33.94-10.79,7.26.76,14.7-.06,22.05-.21,7.56-.15,8.84-1.41,8.84-8.97,0-2.17-.41-4.34.5-6.73.86,4.8,1.72,9.6,2.67,14.93h68.4c3.68,97.39,3.99,194.62,6.37,291.69.48.34.81.77,1.14.78q11.79.09,11.93,12.15c.07,5.12-.26,10.32.51,15.35,1.29,8.46-1.19,14.62-8.09,19.98-7.19,5.58-13.37,12.43-20.23,18.46-1.65,1.45-4.2,2.52-6.39,2.63-27.81,1.31-55.64,2.35-83.46,3.6-8.21.37-16.4,1.17-25.4,1.84,2.52,12.9-8.04,20.23-13.03,30.03-1.14,2.25-5.21,4.19-7.97,4.24-18.5.36-37.01.18-55.51.17-2.17,0-4.34,0-7.47,0,1.73,2.3,3.05,3.72,3.98,5.36,2.26,4,2.25,7.51-3.2,8.44-13.56,2.29-27.11,4.93-40.77,6.32-8.28.84-9.92-1.57-11.41-9.63-.36-1.95-1.83-3.7-2.79-5.55-1.67,1.54-3.81,2.81-4.9,4.68-2.6,4.45-3.48,11.19-10.94,8.99-7.91-2.33-4.93-8.95-4.24-14.09,1.56-11.67,3.63-23.27,5.78-36.71,4.27,11.07,12.48,10.89,20.76,11.19,8.35.31,14.13-3.47,18.21-10.21,9.93-16.42,18.97-33.28,23.1-52.26,2.36-10.85-.65-19.48-10-26.22-15.18-10.94-32.39-14.35-50.49-14.36-3.36,0-7.27,1.93-9.98,4.14-16.47,13.46-43.24,14.41-61.82.59-1.77,7.36-4.5,13.96-4.74,20.65-.58,15.79-.18,31.63.18,47.45.52,22.52-17.07,32.29-33.9,31.65-19-.73-29.56,12.82-24.98,31.47.33,1.36,1.37,2.84,2.52,3.63,1.61,1.11,3.57,2.09,5.47,2.31,21.82,2.53,43.61,2.35,65-3.02,8.57-2.15,13.14-9.57,14.97-17.51,2.94-12.74,4.78-25.75,6.61-38.72,1.02-7.26,1.24-14.65,1.55-21.99.62-14.74,8.37-23.73,21.9-28.73,13.02-4.8,24.53-2.34,34.95,6.25,2.19,1.81,3.71,4.43,4.96,7.21-8.91-7.69-18.22-13.24-30.5-12.43-15.11,1-25.69,9.97-27.36,24.92-1.7,15.26-2.59,30.62-3.84,45.93-.09,1.11-.21,2.22-.41,3.32-5.08,27.97-10.86,33.69-38.94,37.71-16.84,2.41-33.61,2.29-50.61.05-14.52-1.92-29.36-1.3-44.04-2.18-6.86-.41-13.72-1.44-20.46-2.78-2.01-.4-4.51-2.53-5.11-4.41-.41-1.3,1.64-4.12,3.29-5.22,10.78-7.2,21.66-14.35,35.78-10.76,1.14.29,3.82-.96,3.78-1.27-.55-4.91,4.44-10.21-2.36-14.93-3.19-2.21-5.07-8-5.41-12.33-2.03-25.99-3.43-52.02-5.05-78.04-.57-9.12-1.05-18.25-1.76-27.36-.24-3.01-1.08-5.97-1.71-9.31-7.28,1.59-8.79,7.08-10.05,11.97-4.32,16.8-8.52,33.65-12.05,50.63-4.16,20.05-7.61,40.25-11.3,60.4-1.25,6.85-2.88,13.3-11.17,14.07-1.01,13.44-4.21,17.39-16.72,21.52-11.19,3.69-22.26,7.81-33.6,10.97-3.08.86-6.94-1.07-10.44-1.71,2.21-.06,4.6.41,6.6-.27,14.07-4.74,28.2-9.36,42.01-14.77,6.09-2.38,9.28-7.79,9.16-14.15-8.57-1.32-16.5-2.54-23.72-3.65-9.21,6.9-18.49,14.05-27.99,20.88-4.3,3.1-7.33,6.43-5.88,12.13-4.56-5.83-4.56-8.33,1.19-12.6,7.67-5.7,15.76-10.84,23.53-16.41,2.68-1.92,4.95-4.41,7.86-7.05-5.89-6.83-4.98-14.19-3.44-22.19,11.06-57.28,21.74-114.63,32.6-171.94,1.2-6.35,1.13-12.9,1.85-19.04,1.53-13.09-1.12-23.91-6.54-35.65-4.31-9.34.02-19.71,5.91-28.34,7.08-10.37,17.09-16.71,29.12-20.23,1.1-6.16.38-10.6-6.14-14.19-8.71-4.8-11.13-13.72-9.57-23.19,1.75-10.58,8.35-17.62,18.37-21.04,9.53-3.25,18.05-.89,25.07,6.3,2,2.05,3.52,4.56,6.4,8.37,3.09-4.2,5.81-8.05,8.7-11.78,1.15-1.48,2.73-3.89,4-3.82,9.27.53,13-8.12,19.84-11.45,5.17-2.52,10.34-5.16,15.76-6.99,1.22-.41,4.55,2,5.15,3.72,3.88,11.14,5.05,22.65,1.73,34.11-.61,2.11-3.75,4.22-6.14,4.94-4.62,1.4-9.54,1.8-14.86,2.71,1.83,6.84,3.67,11.62,10.02,16.57,18.51,14.44,33.07,32.48,35.38,57.45.6,6.44-3.56,10.48-8.48,12.31-7.82,2.92-16.12,4.72-24.35,6.25-4.5.84-9.29.15-14.22.15-1.61,8.28-1.7,16.49-4.85,23.27-5.34,11.5-3.79,23-3.36,34.73,1.96,53.91,3.92,107.83,5.47,161.75.12,4.31-2.87,8.71-4.32,12.79,7.12-1.01,15.88-1.22,23.99-3.61,15.53-4.57,20.46-11.59,20.93-27.71.33-11.36.24-22.74-.06-34.1-.3-11.54.71-22.61,6.71-32.92,1.2-2.06-.5-5.62.25-8.15,3.03-10.24,1.03-19.38-3.42-28.94-2.27-4.89-1.72-11.44-1.3-17.16.82-10.96,5.59-19.64,16.7-23.5,4.79-1.66,9.63-3.15,14.55-4.75-4.5-4.67-10.07-8.46-12.67-13.72-2.55-5.14-2.07-11.78-4.02-18.25-.69,1.69-2.05,3.42-1.95,5.07.57,9.88-6.93,13.04-13.79,16.29-1.4.66-6.05-1.62-6.33-3.1-2.53-13-1.3-25.37,8.8-35.29,3.65-3.59,7.82-5.14,12.44-1.4-15.09.98-25.44,24.72-16.63,38.48.81-2.23,1.59-4.36,2.74-7.51,1.28,1.95,1.94,2.96,2.59,3.96.76-1.19,1.76-3.61,2.32-3.51,6.07,1.09,3.65-3.95,4.77-6.34,2.57-5.5,5.06-11.03,7.64-16.53.7-1.49,1.59-2.89,2.39-4.34,1.02,1.43,2.04,2.87,2.54,3.58,5.45-2.08,9.68-3.69,13.88-5.3-2.41,1.53-4.98,2.85-7.18,4.63-9.64,7.78-12.34,19.45-6.88,29.09,2.13,3.09,4.26,6.19,6.39,9.28.56-.28,1.12-.56,1.68-.84-.14-2.37-.28-4.73-.42-7.1,2.26,2.88,2.92,6.13,3.94,9.27.71,2.2,1.82,6,2.91,6.06,5.59.28,11.24-.25,16.82-.96.79-.1,2.18-3.17,1.73-4.09-2.26-4.57.18-7.16,3.33-9.63,3.72-2.92,5.2-6.39,3.55-11.14-.71-2.06-.53-4.44-.76-6.79-2.21.68-4.1,1.26-6.74,2.08-1.43-5.15-2.78-10.02-4.14-14.9.66-.31,1.31-.61,1.97-.92-1.65-.92-3.3-1.84-5.3-2.95-.12,1.31-.25,1.94-.22,2.57.69,12.06-5.17,20.29-16.39,24.01-2.13.71-3.46,3.63-5.36,5.31-.64.56-1.88.45-2.85.64-.3-3.8.88-6.71,5.11-6.98,9.69-.63,13.22-7.92,16.33-15.27,3.74-8.83,1.68-11.54-7.71-11.24h20.57c1.79-3.68,4.41-9.15,7.1-14.58.61-1.23,1.77-3.44,2.14-3.34,5.57,1.6,6.47-3.41,8.99-6.08,4.2-4.45,8.42-8.89,12.66-13.31,2.76-2.88,5.45-1.95,7.24.84,6.4,9.99,9.16,21.15,9.32,32.9.02,1.39-2.07,3.21-3.6,4.13-3.03,1.81-6.35,3.13-10.17,4.95,2.51,5.72,4.95,11.25,8.03,18.24,6.55-8.4,13.13-15.67,18.36-23.8,9.62-14.96,18.74-30.27,27.5-45.76,4.46-7.89,9.29-15.09,17.22-19.79,1.86.45,4.5,1.92,5.46,1.18,4.56-3.48,8.66-7.55,12.93-11.42-.5-.56-1.01-1.12-1.51-1.68-3.14,2.14-6.28,4.28-9.42,6.42Zm-250.92,8.42c-1.69-6.49-2.09-12.25,6.14-14.92,1.31-.43,1.87-3.63,2.48-5.64.84-2.79,1.4-5.67,1.85-7.6-2.64-1.15-6.99-1.79-7.44-3.49-.97-3.59-4.72-8.45,1.56-11.58.81-.41.53-3.01.73-4.38-9.75,1.54-15.35,6.61-19.1,14.82-1.24,2.71-6.15,3.74-9.39,5.52-1.57.86-4.17,1.38-4.49,2.55-.36,1.34,1.2,3.28,2.11,4.84,1.41,2.42,3.48,4.57,4.34,7.15.96,2.89,1.01,6.12,1.2,9.21.29,4.8,3.13,6.98,7.46,6.44,4.33-.54,8.53-2.06,12.79-3.16-4.41,7.24-14.07,8.76-22.06,3.73-1.51-.95-4.37-1.79-5.49-1.03-7.09,4.84-14.95,9.19-20.53,15.5-11.36,12.82-11.04,28.36-.97,42.25,7.05,9.72,14.65,18.78,26.23,23.51-10.78-1.42-17.93-8.71-25.24-16.14-5.09,16.02-.63,27.68,13.88,31.62,14.27,3.87,29.2,5.47,43.93,7.36,5.6.72,10.83-1.63,14.63-6.51,7.31-9.39,10.56-20.18,12.13-32.25-19.63,17.4-30.21,21.3-49.57,18.26,5.08-.41,9.84-.19,14.3-1.25,23.51-5.57,35.69-22.26,39.53-44.58,2.39-13.88,1.6-28.39,1.4-42.61-.12-8.3-1.95-9.22-10.36-9.14-7.52.07-11.04,2.6-12.86,10.02-1,4.09-1.03,8.4-1.86,12.54-1.71,8.49-2.87,17.2-5.74,25.3-2.93,8.27-8.56,14.98-17.28,18,13.89-12.33,22.04-34.95,19.94-57.62-4.8,1.1-9.52,2.18-14.25,3.27Zm416.32,46.83v-118.02h-56.96c1.26,29.52,2.48,57.76,3.65,86,.37,8.9.4,17.82,1.1,26.69.15,1.87,2.52,5.06,3.93,5.09,15.75.37,31.51.23,48.28.23Zm-66.27-.29c-1.27-39.32-2.51-77.94-3.72-115.39h-49.56v115.39h53.28Zm-11.02,181.83v-70.03c-29.7-1.22-58.94-2.41-88.54-3.62.89,25.12,1.75,49.2,2.62,73.65h85.92Zm66.18,5.43c-50.79-.93-101.24-1.86-151.71-2.78v15.39h56.34c.67,9.46,1.3,18.27,1.96,27.62,36.7-1.92,72.99-3.81,109.98-5.74v-34.07h-8.63c.79,8.24,1.55,16.24,2.51,26.3-5.33-1.48-11.67-1.71-12.27-3.68-1.81-6.03-1.59-12.72-1.73-19.16-.02-1.12,2.02-2.28,3.54-3.88Zm-97.56-90.75c6.44.7,12.34,1.35,18.51,2.02,5.95-15.6,10.82-31.13,17.71-45.72,7.67-16.25,3.4-32.6,3.92-48.81-7.38-2.42-11.61-.53-13.37,6.66-.89,3.63-2.8,7-4.01,10.57-1.23,3.66-3.22,4.96-7.06,3.52-3.82-1.43-5.42-3.57-3.73-7.61,1.85-4.45,3.57-8.95,5.58-14.01h-20.25c-8.58,29.79-17.18,59.66-25.8,89.6q14.21,3.04,18.73-8.87c.08-.21.17-.41.25-.62,3.58-9.55,4.56-9.96,15.3-5.73-1.82,5.98-3.67,12.05-5.78,18.99Zm76.62,38.1v-130.46h-32.66c1.25,44.01,2.49,87.48,3.71,130.46h28.95Zm36.99-1.25c-1.61-43.46-3.19-86.04-4.78-128.84h-30.17c1.01,43.33,2.01,86.2,3.01,128.84h31.94Zm-331.4-56.33c-6.26,12.71-5.21,31.7,1.03,40.59,12.84,18.27,44.29,23.51,61.66,9.27,14.87-12.19,24.69-28.16,27.62-47.45,4.56-30-6.62-55.46-24.07-78.87-.38-.51-1.08-.77-1.64-1.15-.23.23-.46.46-.68.7,3.4,6.27,6.8,12.54,10.21,18.82-.54.27-1.08.55-1.62.82-1.92-3.45-3.66-7.02-5.8-10.32-2.09-3.22-4.59-6.18-6.91-9.25-.36.26-.73.51-1.09.77,3.79,6.54,7.58,13.07,11.38,19.61-.53.33-1.06.66-1.59.98-3.26-5.34-6.53-10.67-9.79-16.01.79,8.94,13.72,15.15,3.4,25.7,2.45,3.58,4.66,7.18,7.22,10.51,17.92,23.25,5.42,61.22-23.46,72.47-9.38,3.65-15.74,2.09-21.67-6.03-4.71-6.45-8.31-13.72-13.04-20.16-2.86-3.89-6.92-6.9-11.15-10.99Zm204.28,139.23h-69.18c.57,7.37,1.12,14.42,1.68,21.72,2.86.25,5.42.48,7.85.7q2.67,10.62-8.16,14.15c.22,2.54.45,5.15.68,7.85h65.68v-10.41c-2.01-.39-3.75-1.03-5.49-1-4.79.09-6.4-1.86-6.43-6.81-.03-5.33,2.84-5.31,6.64-5.85,2.06-.3,5.19-2.16,5.51-3.79.98-4.93.83-10.09,1.2-16.58Zm118.43-69.68h-69.49v13.15h11.09v13.09c-3.95.44-7.38.81-10.79,1.19v8.48h68.24v-10.88c-2.45-.34-5.02.06-6.27-1.04-1.82-1.61-3.59-4.26-3.67-6.52-.06-1.88,2.31-5.48,3.67-5.51,8.72-.22,7.97-5.76,7.22-11.96Zm-368.86-136.66c11.36-1.06,23.14-1.29,33.88-7.03,7.6-4.06,10.09-8.2,7.72-16.21-2.04-6.92-4.75-13.97-8.71-19.93-5.88-8.86-12.93-16.98-19.85-25.1-6.7-7.88-7.82-7.66-12.72-1.49,1.35,11.05,2.72,20.14,3.46,29.28.31,3.85.74,6.72,4.85,8.37,2.32.93,4.11,3.2,6.13,4.87-.44.59-.87,1.17-1.31,1.76-2.86-1.88-5.71-3.75-8.29-5.45-1.74,10.37-3.41,20.36-5.18,30.93Zm207.45-53.31c-10.34-3.29-13.85-.86-19.87,9.85-14.37,25.55-27.03,52.29-48.93,72.81-.94.88-1.62,2.77-1.41,4.01,1.19,6.92,2.7,13.78,4.31,21.69,28.78-27.36,44.63-62.13,64.16-95.39-3.49-1.12-5.3-1.7-7.41-2.38.57-2.07,1.05-3.8,1.59-5.79-2.1.27-3.54.45-4.99.64-.06-.33-.12-.65-.18-.98,4.24-1.48,8.49-2.97,12.73-4.45Zm182.87,38.57c-12.82,5.79-14.42,8.18-13.89,18.88,1.35,27.56,2.58,55.14,3.88,82.7.53,11.16,1.1,22.32,1.73,34.96,4.39-5.79,11-7.19,10.8-15.08-1-38.73-1.48-77.47-2.16-116.21-.03-1.69-.22-3.38-.35-5.26Zm-179.05,108.98c2.61.46,3.44.7,4.29.73,26.2.98,52.4,2.3,78.61,2.52,4.12.03,8.49-4.69,12.25-7.81.8-.66-.52-3.89-.86-5.93-1.46.54-2.94,1.06-4.39,1.62-6.12,2.39-12.33,6.99-18.34,6.75-15.68-.61-31.3-3.22-46.9-5.35-2.05-.28-3.84-2.4-6.72-4.31-4.63,3.04-10.54,6.91-17.95,11.76Zm-23.86,107.42c2.04.22,3.47.49,4.92.52,17.78.31,35.57.21,53.32,1.03,7.64.35,10.82-3.58,13.95-9.72-19.81,0-38.93.34-58.03-.18-6.78-.19-10.61,2.53-14.16,8.35ZM245.71,184.3c3.72,5.33,10.17,9.09,5.73,16.35h13.83c-.02-14.82-.59-29.1-7.69-42.29,1.6,5.89,3.21,11.78,4.86,17.87h-4.85c-2.85-6.51-5.62-12.85-8.39-19.19-.54.22-1.08.44-1.62.66,1.67,4.51,3.58,8.94,4.95,13.53,2.28,7.66,1.05,10.01-6.82,13.06Zm332,126.51c-.82-.13-1.63-.26-2.45-.39-5.65,15.87-11.3,31.73-17.11,48.05,9.13-1.64,15.1-6.03,16.35-13.93,1.76-11.13,2.2-22.47,3.21-33.73Zm101.12,111.75c-2.43,2.16-4.22,3.65-5.88,5.25-4.95,4.78-9.34,10.35-14.92,14.22-6.81,4.72-5.48,10.36-4.51,17.49,6.44-5.51,11.68-11.12,17.96-15.08,8.36-5.27,8.28-12.53,7.35-21.88Zm-25.64,56.66c7.49-6.91,13.99-13.47,21.11-19.29,5.79-4.74,5.99-10.04,3.85-16.9-6.12,5.28-11.24,11.16-17.62,14.86-8.84,5.12-8.15,12.32-7.34,21.33Zm-4.15-220.21c4.74-1.16,5.36-4.37,5.17-8.58-1.07-23.78-1.93-47.57-2.91-71.35-.44-10.84-.97-21.67-1.46-32.51-.27,0-.54,0-.81.01v112.42Zm-272.07,33.11c-.57.01-1.13.02-1.7.04-.49,3.07-2.39,6.9-1.22,9.05,3.47,6.36.81,9.79-3.93,13.45-1.58,1.22-2.07,3.84-3.63,6.95,5.16-.62,8.3-.75,11.32-1.41,9.97-2.19,12.27-7.43,7.04-15.86-2.55-4.12-5.25-8.15-7.89-12.22Zm283.03-51.24v-108.05c-.96-.1-1.93-.2-2.89-.3-.56,3.11-1.7,6.24-1.58,9.32.83,21.76,1.92,43.5,2.92,65.26.56,12.19,1.12,24.37,1.55,33.78Zm-82.14,124.11c-3.5,3.68-7.48,5.91-7.68,8.43-.76,9.8-.31,19.69-.31,29.55.87.37,1.74.73,2.61,1.1,2.28-3.02,6.35-5.95,6.52-9.08.49-9.19-.57-18.46-1.14-30Zm-2.33,37.95c22.09,0,42.73.07,63.36-.12,1.82-.02,3.62-1.71,6.52-3.17-2.02-.58-2.58-.89-3.13-.88-19.77.38-39.55.72-59.32,1.3-2.14.06-4.23,1.58-7.44,2.87Zm87.89-15.09c-4.88,4.49-9.19,9.22-14.25,12.9-5.44,3.95-6.87,8.49-4.71,15.54,4.69-3.36,8.98-6.36,13.19-9.46,8.29-6.11,8.72-7.52,5.77-18.97ZM242.09,183.18c-1.19,4.67-2.62,7.67-2.56,10.65.08,4.24-1.5,6.66-5.3,8.08-3.72,1.39-5.92,3.61-3.76,8.31,5.86-2.85,13.52.48,17.65-6.99,4.32-7.83-2.11-12.21-6.03-20.06Zm403.6,260.95c12.68-4.09,20.23-14.59,28.77-23.84-14.01,2.43-19.54,15.44-28.77,23.84Zm-111.11,22.25c-11.02,10.92-12.02,13.77-9.28,25.85,8.48-6.4,12.18-14.63,9.28-25.85Zm121.27-335.81c.02-.31.05-.63.07-.94h-54.05c.01.31.02.63.03.94h53.95Zm-128.66,9.51c.09.33.18.66.27.98h47.4c-.03-.33-.05-.66-.08-.98h-47.58Zm138.75,276.9c-.52-.54-1.05-1.07-1.57-1.61-18.94,12.9-21.84,16.3-19.67,23.66,7.21-7.48,14.23-14.77,21.25-22.06Zm-19.99-277.33c-.01-.24-.03-.47-.04-.71h-55.75c.02.24.04.47.05.71h55.74Zm-11.72,331.41c5.56-.72,6.4-4.17,3.87-16.7-.29-1.46-2.68-2.5-4.09-3.73-.51.49-1.02.99-1.52,1.48.56,6.12,1.13,12.24,1.74,18.96Zm-228.16-200.94c.63-.13,1.26-.25,1.89-.38,2.21-7.9-1.07-20.4-7.71-24.92,2.13,9.26,3.97,17.28,5.82,25.3Zm-119.84-101.68c3.79-9.07,4.2-18.14,1.83-27.22-.61,0-1.22,0-1.83,0v27.22Zm-8.82-23.77c-.67,0-1.35,0-2.02,0v24.81c.67,0,1.35,0,2.02,0v-24.81Zm118.59,127.43c.97-.21,1.93-.42,2.9-.62-1.5-7.11-3.01-14.22-4.51-21.33l-3.22.69c1.61,7.09,3.22,14.18,4.83,21.26Zm186.66-140.75c-.04-.37-.08-.74-.12-1.11h-37.86c0,.37.02.74.03,1.11h37.95Zm-314.58,68.41c5.93-4.92,5.9-7.81,0-18.9v18.9Zm-32.21,312.92l1.78,2.01c4.7-7.34,15.3,2.35,19.14-7.17-5.41.42-10.96.58-16.39,1.43-1.67.26-3.03,2.43-4.53,3.73Zm289.96,1.64c3.45-5.68,6.9-11.35,10.35-17.03-.68-.39-1.37-.78-2.05-1.17-3.26,5.87-10.32,9.58-8.3,18.2Zm-133.43-186.15c-.96-4.94-1.66-8.49-2.51-12.87-3.01,2.28-5.01,3.78-7.19,5.43,3.09,2.37,5.77,4.42,9.7,7.44Z"/>
  <path class="cls-1" d="m489.68,122.86c-3.43,3.85-6.33,7.11-10.16,11.41-4.05-7.28-7.63-13.71-11.29-20.31-7.93,3.55-15.3,6.85-22.67,10.15-.66-.49-1.32-.98-1.98-1.47,2.88-8.15,5.76-16.3,8.79-24.88-8.54-4.8-17.38-9.76-28.02-15.73,11.13-3.65,20.4-6.69,29.08-9.54.57-11.48,1.1-22.22,1.64-32.96,1.03-.32,2.06-.65,3.09-.97,5.36,8.41,10.73,16.82,16.61,26.05,7.16-8.22,14.19-16.3,22.02-25.29,1.94,9.64,3.65,18.12,5.5,27.34,8.43-4.54,15.95-8.59,24.9-13.42-1.14,8.43-2.08,15.3-2.91,21.44,7.8,0,15.55-.73,23.1.21,7.25.91,14.29,3.55,21.42,5.43-.17.57-.33,1.14-.5,1.71-7.02-1.75-13.96-4.31-21.08-5.03-7.3-.73-14.77.34-23.5.67,8.56,6.75,15.69,12.38,22.82,18l-.81,1.72c-6.84.98-13.68,1.96-21.08,3.02,4.44,7.33,8.43,13.91,13.49,22.27-9.52-2.54-17.07-4.55-25.2-6.72-3.19,9.36-6.23,18.25-9.75,28.58-4.9-7.88-8.96-14.4-13.5-21.7Zm-6.81-42.29c-.2-4.86-4.4-8.62-9.47-8.24-4.84.36-7.98,2.74-8.03,7.96-.05,4.86,4.15,8.86,9.04,8.79,4.84-.07,8.66-3.91,8.46-8.5Zm15.75,25.58c7.32-.64,10.67-3.26,10.92-8.43.23-4.66-2.53-7.46-7.25-7.79-4.89-.34-10.03,4.03-8.95,8.41.79,3.19,3.85,5.82,5.28,7.81Zm-4.36-26.98c-.82-.3-1.63-.61-2.45-.91-3.97,8.92-7.94,17.85-12.27,27.55,2.06-.17,4.07.08,4.28-.42,3.61-8.69,7-17.46,10.44-26.22Z"/>
  <path class="cls-1" d="m565.62,106.8c.57-2.46.49-6.54,1.83-7.07,3.91-1.55,8.42-2.36,12.62-2.11,2.41.15,4.65,2.93,6.48,5.55-1.73-.75-3.46-1.51-3.54-1.54-3.73,4.13-6.56,7.98-10.24,10.71-.66.49-4.77-3.68-7.27-5.68,6.26,4.02,10.34,2.06,12.07-6.02-5.63-1.03-8.99,2.17-11.95,6.16Z"/>
  <path class="cls-1" d="m411.12,452.1c-4.41,5.4-9.11,10.59-13.16,16.25-3.96,5.54-7.27,11.55-11.82,18.91,4.07-16.11,13.97-26.21,23.73-36.4.42.41.83.82,1.25,1.23Z"/>
  <path class="cls-1" d="m560.54,388.09c-6.4,0-11.95.5-17.36-.12-7.61-.87-3.22-7.25-6.12-12.78,7.53,0,13.41-.32,19.23.21,1.54.14,3.5,2.67,4.09,4.48.71,2.19.17,4.78.17,8.21Zm-3.86-3.19c-.11-2.24-.21-4.16-.32-6.29h-13.94c-.9,7.97.32,8.5,14.25,6.29Z"/>
  <path class="cls-1" d="m560.18,398.32h-19.42c6.7-4.37,16.08-4.41,19.42,0Z"/>
  <path class="cls-1" d="m541.1,390.24h20.19c0,.6,0,1.19,0,1.79-6.73.32-13.46.64-20.2.95,0-.91,0-1.83,0-2.74Z"/>
</svg>